<svg width="25" height="30" viewBox="0 0 25 30" fill="none" xmlns="http://www.w3.org/2000/svg">
<path d="M4.00481 9.93193V8.51308C4.00481 3.81143 7.59084 0 12.0144 0C16.438 0 20.024 3.81143 20.024 8.51308V9.93193H22.6939C23.4312 9.93193 24.0289 10.5672 24.0289 11.3508V28.3769C24.0289 29.1606 23.4312 29.7958 22.6939 29.7958H1.33494C0.597678 29.7958 0 29.1606 0 28.3769V11.3508C0 10.5672 0.597678 9.93193 1.33494 9.93193H4.00481ZM21.359 12.7696H2.66987V26.9581H21.359V12.7696ZM10.6795 20.903C9.88147 20.4124 9.34456 19.4954 9.34456 18.445C9.34456 16.8777 10.5399 15.6073 12.0144 15.6073C13.489 15.6073 14.6843 16.8777 14.6843 18.445C14.6843 19.4954 14.1474 20.4124 13.3494 20.903V24.1204H10.6795V20.903ZM6.67468 9.93193H17.3542V8.51308C17.3542 5.37865 14.9634 2.83769 12.0144 2.83769C9.06537 2.83769 6.67468 5.37865 6.67468 8.51308V9.93193Z" fill="#535353"/>
</svg>
