<svg width="23" height="31" viewBox="0 0 23 31" fill="none" xmlns="http://www.w3.org/2000/svg">
<path d="M20.9927 29.1101C20.2163 29.8577 19.3193 30.0955 19.3193 30.0955V27.2293C19.3193 24.8547 17.4659 22.9299 15.1795 22.9299H6.89976C4.61339 22.9299 2.7599 24.8547 2.7599 27.2293V30.0955C2.7599 30.0955 1.66895 30.0775 0.892557 29.3299C0.086247 28.5535 0 27.2293 0 27.2293C0 23.2718 3.08913 20.0637 6.89976 20.0637H15.1795C18.9901 20.0637 22.0792 23.2718 22.0792 27.2293C22.0792 27.2293 21.799 28.3337 20.9927 29.1101ZM11.0396 17.1974C6.46685 17.1974 2.7599 13.3476 2.7599 8.59871C2.7599 3.84977 6.46685 0 11.0396 0C15.6124 0 19.3193 3.84977 19.3193 8.59871C19.3193 13.3476 15.6124 17.1974 11.0396 17.1974ZM11.0396 14.3312C14.0881 14.3312 16.5594 11.7647 16.5594 8.59871C16.5594 5.43275 14.0881 2.86624 11.0396 2.86624C7.99111 2.86624 5.51981 5.43275 5.51981 8.59871C5.51981 11.7647 7.99111 14.3312 11.0396 14.3312Z" fill="#535353"/>
<path d="M19.3193 30.0955V27.2293H2.7599V30.0955H19.3193Z" fill="#535353"/>
<path d="M19.3193 27.2293C19.3193 24.8547 17.4659 22.9299 15.1795 22.9299H6.89976C4.61339 22.9299 2.7599 24.8547 2.7599 27.2293H19.3193Z" fill="#535353"/>
<path d="M11.0396 14.3312C14.0881 14.3312 16.5594 11.7647 16.5594 8.59871C16.5594 5.43275 14.0881 2.86624 11.0396 2.86624C7.99111 2.86624 5.51981 5.43275 5.51981 8.59871C5.51981 11.7647 7.99111 14.3312 11.0396 14.3312Z" fill="#535353"/>
</svg>
